# Wavefront OBJ file
# Exported by Maverick Model 3D 1.3.12
# Mon Feb 22 14:37:41 2021

mtllib coin.mtl

# 18 Vertices
v 0.0 4.407878 1.126832
v 2.97566 3.175319 1.126832
v 4.208219 0.199659 1.126832
v 2.97566 -2.776002 1.126832
v 0.0 -4.008561 1.126832
v -2.97566 -2.776002 1.126832
v -4.208219 0.199658 1.126832
v -2.975661 3.175318 1.126832
v 0.0 4.407878 -1.205223
v 2.97566 3.175319 -1.205223
v 4.208219 0.199659 -1.205223
v 2.97566 -2.776002 -1.205223
v 0.0 -4.008561 -1.205223
v -2.97566 -2.776002 -1.205223
v -4.208219 0.199658 -1.205223
v -2.975661 3.175318 -1.205223
v 0.0 0.199658 1.126832
v 0.0 0.199658 -1.205223

# 96 Texture Coordinates
vt 1.0 0.0
vt 1.0 1.0
vt 0.0 1.0
vt 0.0 1.0
vt 0.0 0.0
vt 1.0 0.0
vt 1.0 0.0
vt 1.0 1.0
vt 0.0 1.0
vt 0.0 1.0
vt 0.0 0.0
vt 1.0 0.0
vt 1.0 0.0
vt 1.0 1.0
vt 0.0 1.0
vt 0.0 1.0
vt 0.0 0.0
vt 1.0 0.0
vt 1.0 0.0
vt 1.0 1.0
vt 0.0 1.0
vt 0.0 1.0
vt 0.0 0.0
vt 1.0 0.0
vt 1.0 0.0
vt 1.0 1.0
vt 0.0 1.0
vt 0.0 1.0
vt 0.0 0.0
vt 1.0 0.0
vt 1.0 0.0
vt 1.0 1.0
vt 0.0 1.0
vt 0.0 1.0
vt 0.0 0.0
vt 1.0 0.0
vt 1.0 0.0
vt 1.0 1.0
vt 0.0 1.0
vt 0.0 1.0
vt 0.0 0.0
vt 1.0 0.0
vt 1.0 0.0
vt 1.0 1.0
vt 0.0 1.0
vt 0.0 1.0
vt 0.0 0.0
vt 1.0 0.0
vt 1.0 0.0
vt 1.0 1.0
vt 0.0 1.0
vt 0.0 1.0
vt 0.0 0.0
vt 1.0 0.0
vt 1.0 0.0
vt 1.0 1.0
vt 0.0 1.0
vt 0.0 1.0
vt 0.0 0.0
vt 1.0 0.0
vt 1.0 0.0
vt 1.0 1.0
vt 0.0 1.0
vt 0.0 1.0
vt 0.0 0.0
vt 1.0 0.0
vt 1.0 0.0
vt 1.0 1.0
vt 0.0 1.0
vt 0.0 1.0
vt 0.0 0.0
vt 1.0 0.0
vt 1.0 0.0
vt 1.0 1.0
vt 0.0 1.0
vt 0.0 1.0
vt 0.0 0.0
vt 1.0 0.0
vt 1.0 0.0
vt 1.0 1.0
vt 0.0 1.0
vt 0.0 1.0
vt 0.0 0.0
vt 1.0 0.0
vt 1.0 0.0
vt 1.0 1.0
vt 0.0 1.0
vt 0.0 1.0
vt 0.0 0.0
vt 1.0 0.0
vt 1.0 0.0
vt 1.0 1.0
vt 0.0 1.0
vt 0.0 1.0
vt 0.0 0.0
vt 1.0 0.0

# 96 Vertex Normals
vn -0.136774 0.990602 0.0
vn 0.603748 0.797175 0.0
vn 0.136774 0.990602 0.0
vn 0.603748 0.797175 0.0
vn 0.797175 0.603748 0.0
vn 0.136774 0.990602 0.0
vn 0.603748 0.797175 0.0
vn 0.990602 0.136774 0.0
vn 0.797175 0.603748 0.0
vn 0.990602 0.136774 0.0
vn 0.990602 -0.136774 0.0
vn 0.797175 0.603748 0.0
vn 0.990602 0.136774 0.0
vn 0.797175 -0.603748 0.0
vn 0.990602 -0.136774 0.0
vn 0.797175 -0.603748 0.0
vn 0.603748 -0.797175 0.0
vn 0.990602 -0.136774 0.0
vn 0.797175 -0.603748 0.0
vn 0.136774 -0.990602 0.0
vn 0.603748 -0.797175 0.0
vn 0.136774 -0.990602 0.0
vn -0.136774 -0.990602 0.0
vn 0.603748 -0.797175 0.0
vn 0.136774 -0.990602 0.0
vn -0.603748 -0.797175 0.0
vn -0.136774 -0.990602 0.0
vn -0.603748 -0.797175 0.0
vn -0.797175 -0.603748 0.0
vn -0.136774 -0.990602 0.0
vn -0.603748 -0.797175 0.0
vn -0.990602 -0.136774 0.0
vn -0.797175 -0.603748 0.0
vn -0.990602 -0.136774 0.0
vn -0.990602 0.136773 0.0
vn -0.797175 -0.603748 0.0
vn -0.990602 -0.136774 0.0
vn -0.797175 0.603748 0.0
vn -0.990602 0.136773 0.0
vn -0.797175 0.603748 0.0
vn -0.603748 0.797175 0.0
vn -0.990602 0.136773 0.0
vn -0.797175 0.603748 0.0
vn -0.136774 0.990602 0.0
vn -0.603748 0.797175 0.0
vn -0.136774 0.990602 0.0
vn 0.136774 0.990602 0.0
vn -0.603748 0.797175 0.0
vn 0.0 0.0 1.0
vn 0.0 0.0 1.0
vn 0.0 0.0 1.0
vn 0.0 0.0 1.0
vn 0.0 0.0 1.0
vn 0.0 0.0 1.0
vn 0.0 0.0 1.0
vn 0.0 0.0 1.0
vn 0.0 0.0 1.0
vn 0.0 0.0 1.0
vn 0.0 0.0 1.0
vn 0.0 0.0 1.0
vn 0.0 0.0 1.0
vn 0.0 0.0 1.0
vn 0.0 0.0 1.0
vn 0.0 0.0 1.0
vn 0.0 0.0 1.0
vn 0.0 0.0 1.0
vn 0.0 0.0 1.0
vn 0.0 0.0 1.0
vn 0.0 0.0 1.0
vn 0.0 0.0 1.0
vn 0.0 0.0 1.0
vn 0.0 0.0 1.0
vn 0.0 0.0 -1.0
vn 0.0 0.0 -1.0
vn 0.0 0.0 -1.0
vn 0.0 0.0 -1.0
vn 0.0 0.0 -1.0
vn 0.0 0.0 -1.0
vn 0.0 0.0 -1.0
vn 0.0 0.0 -1.0
vn 0.0 0.0 -1.0
vn 0.0 0.0 -1.0
vn 0.0 0.0 -1.0
vn 0.0 0.0 -1.0
vn 0.0 0.0 -1.0
vn 0.0 0.0 -1.0
vn 0.0 0.0 -1.0
vn 0.0 0.0 -1.0
vn 0.0 0.0 -1.0
vn 0.0 0.0 -1.0
vn 0.0 0.0 -1.0
vn 0.0 0.0 -1.0
vn 0.0 0.0 -1.0
vn 0.0 0.0 -1.0
vn 0.0 0.0 -1.0
vn 0.0 0.0 -1.0

# ungrouped, 32 grouped triangles

usemtl tex
o ungrouped
g ungrouped

f 1/1/1 2/2/2 9/3/3
f 2/4/4 10/5/5 9/6/6
f 2/7/7 3/8/8 10/9/9
f 3/10/10 11/11/11 10/12/12
f 3/13/13 4/14/14 11/15/15
f 4/16/16 12/17/17 11/18/18
f 4/19/19 5/20/20 12/21/21
f 5/22/22 13/23/23 12/24/24
f 5/25/25 6/26/26 13/27/27
f 6/28/28 14/29/29 13/30/30
f 6/31/31 7/32/32 14/33/33
f 7/34/34 15/35/35 14/36/36
f 7/37/37 8/38/38 15/39/39
f 8/40/40 16/41/41 15/42/42
f 8/43/43 1/44/44 16/45/45
f 1/46/46 9/47/47 16/48/48
f 17/49/49 2/50/50 1/51/51
f 17/52/52 3/53/53 2/54/54
f 17/55/55 4/56/56 3/57/57
f 17/58/58 5/59/59 4/60/60
f 17/61/61 6/62/62 5/63/63
f 17/64/64 7/65/65 6/66/66
f 17/67/67 8/68/68 7/69/69
f 17/70/70 1/71/71 8/72/72
f 18/73/73 9/74/74 10/75/75
f 18/76/76 10/77/77 11/78/78
f 18/79/79 11/80/80 12/81/81
f 18/82/82 12/83/83 13/84/84
f 18/85/85 13/86/86 14/87/87
f 18/88/88 14/89/89 15/90/90
f 18/91/91 15/92/92 16/93/93
f 18/94/94 16/95/95 9/96/96
