# Blender 4.0.2
# www.blender.org
mtllib rock2.mtl
o Low_Poly_Rock_Big_001_Icosphere.002
v -1.492015 1.852419 -0.894379
v -0.072497 3.238213 0.439698
v -1.053751 3.056645 -0.302145
v -0.960305 1.485783 -1.318138
v 1.619385 0.777070 -0.746269
v -1.646230 -0.067121 0.671446
v -1.614504 1.731213 0.670563
v -0.906153 2.524484 -1.060643
v -1.614149 0.057315 -0.402307
v 0.132120 3.278480 -0.724383
v 0.696477 1.336151 1.534357
v 0.383379 1.525612 -1.561075
v 1.299409 1.584506 0.669948
v -0.526429 -1.149781 -0.307988
v 1.454554 -0.124511 0.368046
v 0.689057 -1.131949 0.070839
v 0.839849 -0.758235 -0.807214
v -1.026865 0.570390 1.531658
v -0.677081 1.845288 1.526495
v 0.728882 3.145763 0.010625
v 1.111475 2.096089 -0.669200
v -0.071406 -1.237264 0.221933
v -0.749406 0.288065 -1.510161
v 0.176359 0.060682 -1.527541
v -0.379331 -0.908123 -0.898985
v -0.035908 -0.371815 1.406224
v 1.151990 0.851670 -1.443467
v 0.062833 -1.311987 -0.483051
vn -0.7353 -0.6704 -0.0997
vn -0.9314 0.3611 -0.0449
vn -0.9961 0.0474 -0.0743
vn -0.7135 0.5007 -0.4901
vn 0.4368 0.5748 0.6920
vn 0.9333 0.3590 0.0062
vn -0.3452 0.7354 -0.5831
vn -0.1833 0.9831 0.0018
vn 0.1353 -0.6351 -0.7605
vn 0.3977 -0.4029 -0.8243
vn -0.9995 0.0176 -0.0278
vn 0.6457 0.4850 0.5897
vn 0.6931 0.5525 -0.4630
vn 0.1459 0.9875 0.0598
vn 0.4937 0.4312 -0.7552
vn -0.8166 0.0147 0.5771
vn -0.1743 0.4037 -0.8981
vn -0.6746 0.1880 0.7138
vn -0.7838 -0.0386 -0.6198
vn 0.5762 0.4452 -0.6854
vn 0.1439 0.2310 -0.9622
vn 0.9394 0.3429 -0.0008
vn 0.7984 0.3366 -0.4992
vn 0.7559 -0.3621 -0.5455
vn 0.8067 -0.5809 -0.1087
vn -0.3559 -0.8306 -0.4282
vn 0.1326 -0.5919 -0.7950
vn -0.2498 -0.9667 0.0549
vn 0.4805 -0.8336 -0.2723
vn 0.1621 -0.9776 0.1345
vn -0.0038 0.0051 1.0000
vn -0.5373 0.6348 0.5553
vn -0.5030 0.2326 -0.8324
vn 0.1984 0.5479 0.8127
vn -0.5551 0.6479 0.5216
vn 0.5779 -0.3046 0.7571
vn -0.5102 -0.8040 0.3054
vn -0.1801 0.1247 -0.9757
vn 0.8233 -0.0254 0.5670
vn -0.3908 -0.7376 0.5507
vn -0.0236 -0.0196 -0.9995
vn -0.4308 -0.5485 0.7167
vn 0.0391 -0.0914 0.9950
vn 0.9802 0.0554 0.1899
vn -0.6777 -0.1511 -0.7196
vn 0.8729 -0.4344 -0.2223
vn 0.5273 -0.5830 0.6181
vn -0.1350 -0.4836 -0.8648
vn 0.2229 -0.7903 0.5708
vn -0.6578 -0.6255 -0.4195
vn -0.6296 -0.4990 -0.5954
vn 0.1174 -0.0393 -0.9923
vt 0.000659 0.056026
vt 0.090250 0.090250
vt 0.000659 0.179842
vt 0.091568 0.106473
vt 0.181159 0.090250
vt 0.091568 0.179842
vt 0.182477 0.106473
vt 0.272068 0.090250
vt 0.182477 0.179842
vt 0.000659 0.181159
vt 0.090250 0.270751
vt 0.000659 0.360342
vt 0.091568 0.181159
vt 0.181159 0.270751
vt 0.091568 0.360342
vt 0.182477 0.181159
vt 0.272068 0.270751
vt 0.182477 0.360342
vt 0.273386 0.090477
vt 0.362977 0.090250
vt 0.273386 0.179842
vt 0.273386 0.181159
vt 0.362977 0.270751
vt 0.273386 0.360342
vt 0.364295 0.000659
vt 0.453887 0.090250
vt 0.364295 0.179842
vt 0.364295 0.181159
vt 0.453887 0.270751
vt 0.364295 0.360342
vt 0.000659 0.361660
vt 0.090250 0.376197
vt 0.000659 0.421495
vt 0.091568 0.361660
vt 0.181159 0.392192
vt 0.091568 0.438720
vt 0.182477 0.361660
vt 0.272068 0.451251
vt 0.182477 0.455946
vt 0.273386 0.361660
vt 0.362977 0.409418
vt 0.273386 0.431338
vt 0.364295 0.361660
vt 0.377602 0.451251
vt 0.364295 0.425186
vt 0.455204 0.000659
vt 0.544796 0.090250
vt 0.455204 0.179842
vt 0.455204 0.181159
vt 0.544796 0.270751
vt 0.455204 0.360342
vt 0.455204 0.361660
vt 0.457438 0.371276
vt 0.455204 0.405500
vt 0.546113 0.000659
vt 0.635705 0.090250
vt 0.546113 0.179842
vt 0.546113 0.181159
vt 0.635705 0.270751
vt 0.546113 0.360342
vt 0.546113 0.361660
vt 0.635705 0.451251
vt 0.546113 0.283691
vt 0.000659 0.542160
vt 0.090250 0.631752
vt 0.000659 0.721343
vt 0.091568 0.542160
vt 0.181159 0.631752
vt 0.091568 0.721343
vt 0.182477 0.542160
vt 0.272068 0.631752
vt 0.182477 0.721343
vt 0.273386 0.542160
vt 0.362977 0.631752
vt 0.273386 0.721343
vt 0.364295 0.542160
vt 0.453887 0.631752
vt 0.364295 0.721343
vt 0.455204 0.678734
vt 0.544796 0.631752
vt 0.455204 0.721343
vt 0.546113 0.622136
vt 0.635705 0.631752
vt 0.546113 0.721343
vt 0.637022 0.000659
vt 0.726614 0.090250
vt 0.637022 0.179842
vt 0.637022 0.181159
vt 0.726614 0.270751
vt 0.637022 0.360342
vt 0.637022 0.361660
vt 0.726614 0.451251
vt 0.637022 0.417803
vt 0.637022 0.542160
vt 0.726614 0.631752
vt 0.637022 0.721343
vt 0.727932 0.079404
vt 0.817523 0.090250
vt 0.727932 0.179842
vt 0.727932 0.181159
vt 0.817523 0.270751
vt 0.727932 0.360342
vt 0.727932 0.361660
vt 0.817523 0.451251
vt 0.727932 0.540843
vt 0.727931 0.542160
vt 0.817523 0.631752
vt 0.727931 0.721343
vt 0.000659 0.722661
vt 0.090250 0.812252
vt 0.000659 0.901844
vt 0.091568 0.722661
vt 0.181159 0.812252
vt 0.091568 0.901844
vt 0.182477 0.722661
vt 0.272068 0.812252
vt 0.182477 0.901844
vt 0.273386 0.722661
vt 0.362977 0.812252
vt 0.273386 0.901844
vt 0.364295 0.722661
vt 0.453887 0.812252
vt 0.364295 0.901844
vt 0.455204 0.722661
vt 0.544796 0.812252
vt 0.455204 0.901844
vt 0.546113 0.722661
vt 0.635705 0.812252
vt 0.546113 0.901844
vt 0.637022 0.722661
vt 0.726614 0.812252
vt 0.637022 0.901844
vt 0.727932 0.722661
vt 0.817523 0.812252
vt 0.727932 0.901844
vt 0.818841 0.095399
vt 0.908432 0.090250
vt 0.818841 0.179842
vt 0.818841 0.181159
vt 0.908432 0.270751
vt 0.818841 0.360342
vt 0.818841 0.361660
vt 0.908432 0.451251
vt 0.818841 0.540843
vt 0.818841 0.542160
vt 0.908432 0.631752
vt 0.818841 0.721343
vt 0.818841 0.722661
vt 0.908432 0.812252
vt 0.818841 0.901844
vt 0.909750 0.108933
vt 0.999341 0.090250
vt 0.909750 0.179842
vt 0.909750 0.181159
vt 0.999341 0.270751
vt 0.909750 0.360342
s 0
usemtl LowPolyBigRock001Mat
f 9/1/1 14/2/1 6/3/1
f 1/4/2 7/5/2 3/6/2
f 9/7/3 7/8/3 1/9/3
f 8/10/4 1/11/4 3/12/4
f 2/13/5 11/14/5 20/15/5
f 5/16/6 21/17/6 13/18/6
f 3/19/7 10/20/7 8/21/7
f 2/22/8 10/23/8 3/24/8
f 28/25/9 25/26/9 17/27/9
f 24/28/10 27/29/10 17/30/10
f 7/31/11 9/32/11 6/33/11
f 13/34/12 20/35/12 11/36/12
f 20/37/13 21/38/13 10/39/13
f 2/40/14 20/41/14 10/42/14
f 12/43/15 10/44/15 27/45/15
f 6/46/16 18/47/16 7/48/16
f 4/49/17 10/50/17 12/51/17
f 19/52/18 7/53/18 18/54/18
f 4/55/19 23/56/19 9/57/19
f 10/58/20 21/59/20 27/60/20
f 10/61/21 4/62/21 8/63/21
f 21/64/22 20/65/22 13/66/22
f 5/67/23 27/68/23 21/69/23
f 17/70/24 27/71/24 5/72/24
f 17/73/25 15/74/25 16/75/25
f 25/76/26 28/77/26 14/78/26
f 17/79/27 25/80/27 24/81/27
f 28/82/28 22/83/28 14/84/28
f 16/85/29 28/86/29 17/87/29
f 16/88/30 22/89/30 28/90/30
f 18/91/31 11/92/31 19/93/31
f 2/94/32 3/95/32 7/96/32
f 8/97/33 4/98/33 1/99/33
f 19/100/34 11/101/34 2/102/34
f 7/103/35 19/104/35 2/105/35
f 26/106/36 15/107/36 11/108/36
f 6/109/37 14/110/37 22/111/37
f 12/112/38 23/113/38 4/114/38
f 15/115/39 13/116/39 11/117/39
f 22/118/40 26/119/40 6/120/40
f 24/121/41 23/122/41 12/123/41
f 6/124/42 26/125/42 18/126/42
f 11/127/43 18/128/43 26/129/43
f 15/130/44 5/131/44 13/132/44
f 9/133/45 1/134/45 4/135/45
f 5/136/46 15/137/46 17/138/46
f 15/139/47 26/140/47 16/141/47
f 23/142/48 24/143/48 25/144/48
f 16/145/49 26/146/49 22/147/49
f 9/148/50 25/149/50 14/150/50
f 9/151/51 23/152/51 25/153/51
f 12/154/52 27/155/52 24/156/52
